<svg width="544" height="644" viewBox="0 0 544 644" fill="none" xmlns="http://www.w3.org/2000/svg">
<path d="M416.874 612.672H399.708L391.539 546.463H416.874V612.672Z" fill="#9E616A"/>
<path d="M425.933 642.414H413.624L411.426 630.792L405.799 642.414H373.15C371.585 642.414 370.061 641.913 368.8 640.986C367.54 640.059 366.608 638.753 366.143 637.258C365.677 635.764 365.701 634.161 366.211 632.681C366.722 631.202 367.692 629.924 368.979 629.035L395.052 611.028V599.279L422.476 600.916L425.933 642.414Z" fill="#2F2E41"/>
<path d="M518.854 591.009L505.079 601.252L459.016 552.997L479.346 537.879L518.854 591.009Z" fill="#9E616A"/>
<path d="M543.871 609.469L533.993 616.815L525.294 608.8L527.713 621.484L501.514 640.966C500.258 641.9 498.737 642.408 497.172 642.416C495.607 642.424 494.081 641.932 492.815 641.011C491.55 640.09 490.612 638.788 490.139 637.297C489.666 635.805 489.682 634.201 490.184 632.719L500.362 602.712L493.35 593.283L516.333 578.233L543.871 609.469Z" fill="#2F2E41"/>
<path d="M436.858 271.068C436.858 271.068 469.427 299.206 454.4 379.421L436.055 458.017L495.884 557.273L476.808 580.481L399.028 473.047L370.843 406.934L362.934 289.264L436.858 271.068Z" fill="#2F2E41"/>
<path d="M386.378 425.774L384.419 456.112L390.414 585.393L418.623 580.48L424.014 488.434L386.378 425.774Z" fill="#2F2E41"/>
<path d="M24.3758 628.239L39.7268 628.238L47.0288 569.029L24.3738 569.03L24.3758 628.239Z" fill="#FFB6B6"/>
<path d="M20.4604 623.227L24.7812 623.227L41.6501 616.367L50.6913 623.226H50.6924C55.8018 623.227 60.7019 625.256 64.3148 628.869C67.9277 632.482 69.9575 637.382 69.9579 642.491V643.117L20.4613 643.119L20.4604 623.227Z" fill="#2F2E41"/>
<path d="M83.8628 618.566L98.8358 621.946L119.002 565.8L96.9028 560.81L83.8628 618.566Z" fill="#FFB6B6"/>
<path d="M81.1471 612.815L85.3617 613.766L103.327 610.79L110.636 619.473L110.637 619.473C115.621 620.599 119.953 623.658 122.681 627.978C125.41 632.298 126.31 637.525 125.185 642.509L125.047 643.119L76.7662 632.218L81.1471 612.815Z" fill="#2F2E41"/>
<path d="M4.93406 266.264C-2.26302 287.971 -1.50212 311.532 6.66397 336.82L10.1548 479.199C10.1548 479.199 4.95374 572.567 21.7368 605.423H46.0768L58.1279 470.672L59.6412 380.226L111.824 456.532L78.5871 603.22L108.544 605.898L162.478 446.707L95.9341 292.264L4.93406 266.264Z" fill="#2F2E41"/>
<path d="M359.376 260.612C359.056 261.963 359.077 263.372 359.436 264.713C359.796 266.054 360.482 267.284 361.435 268.294C361.925 268.811 361.061 269.5 360.574 268.987C359.527 267.866 358.77 266.506 358.37 265.026C357.97 263.545 357.938 261.989 358.278 260.493C358.298 260.35 358.373 260.219 358.486 260.128C358.599 260.037 358.742 259.993 358.887 260.004C359.032 260.02 359.165 260.093 359.257 260.207C359.348 260.321 359.391 260.467 359.376 260.612V260.612Z" fill="white"/>
<path d="M243.313 173.158C242.287 174.508 240.977 175.617 239.476 176.406C237.975 177.195 236.319 177.645 234.625 177.725C232.931 177.805 231.241 177.512 229.672 176.868C228.103 176.224 226.695 175.243 225.546 173.996L187.746 190.436L191.428 169.334L226.759 156.958C228.983 155.167 231.786 154.254 234.638 154.391C237.49 154.529 240.192 155.708 242.232 157.705C244.273 159.702 245.51 162.378 245.709 165.226C245.908 168.074 245.056 170.897 243.313 173.158V173.158Z" fill="#FFB8B8"/>
<path d="M218.088 179.747L130.291 218.855L130.102 218.788L30.0352 183.129C22.5815 179.233 16.8989 172.636 14.1509 164.687C11.4029 156.739 11.7973 148.04 15.2535 140.373V140.373C17.1693 136.137 19.9605 132.354 23.4434 129.275C26.9263 126.195 31.022 123.888 35.4609 122.505C39.8998 121.122 44.5812 120.695 49.1969 121.252C53.8127 121.809 58.2582 123.338 62.2407 125.736L136.709 170.596L208.92 161.237L218.088 179.747Z" fill="#E6E6E6"/>
<path d="M100.274 296.825L11.7685 282.668C9.4473 281.925 7.31441 280.688 5.51634 279.042C3.71826 277.397 2.29758 275.382 1.35179 273.135C0.405991 270.889 -0.0425177 268.464 0.0370892 266.028C0.116696 263.592 0.72253 261.202 1.81297 259.022L5.82664 250.994L4.26756 166.647C4.07965 155.676 6.78445 144.848 12.1099 135.254C17.4353 125.66 25.1935 117.637 34.604 111.993L43.2348 106.833L47.5967 95.7561L87.8169 96.7371L87.9341 111.264L102.338 134.233L102.337 134.328L101.434 259.342L97.4638 272.243L103.466 287.249L100.274 296.825Z" fill="#3F3D56"/>
<path d="M71.3899 81.9826C91.5727 81.9826 107.934 65.6212 107.934 45.4384C107.934 25.2556 91.5727 8.89429 71.3899 8.89429C51.2071 8.89429 34.8458 25.2556 34.8458 45.4384C34.8458 65.6212 51.2071 81.9826 71.3899 81.9826Z" fill="#FFB8B8"/>
<path d="M33.3363 53.4049C32.2463 48.813 32.7467 42.3514 33.3627 37.7279C34.9776 25.6066 41.7091 14.0832 51.9361 7.25744C53.8752 5.78461 56.1795 4.86889 58.6006 4.60899C61.02 4.50799 63.6425 5.80316 64.3853 8.10798C64.9947 6.58679 65.9095 5.20666 67.0731 4.05276C68.2367 2.89886 69.6245 1.99568 71.1508 1.39898C74.2167 0.224335 77.5141 -0.219887 80.7815 0.101524C87.1148 0.623564 93.1886 2.85048 98.3583 6.54595C103.528 10.2414 107.601 15.2676 110.145 21.091C111.121 23.4098 113.847 14.8448 115.084 17.0357C116.22 19.3131 118.203 21.0551 120.608 21.8891C123.031 22.5653 124.015 32.5495 124.969 30.2214C125.709 31.9419 126.001 33.8217 125.819 35.6857C125.637 37.5497 124.986 39.3373 123.927 40.882C122.868 42.4267 121.435 43.6782 119.762 44.5201C118.089 45.3619 116.23 45.7666 114.358 45.6966C111.892 45.6043 109.533 44.6971 107.096 44.3066C98.3811 42.9102 89.1363 49.2298 87.2731 57.8572C86.6061 55.3622 85.5405 52.9914 84.1175 50.8362C83.3951 49.7643 82.4273 48.8803 81.2944 48.2579C80.1615 47.6354 78.8964 47.2925 77.6043 47.2575C75.1247 47.3503 72.9452 48.9714 71.3364 50.8605C69.7275 52.7495 68.5192 54.9535 66.8985 56.8323C62.143 62.3453 55.7111 75.202 48.934 74.2643C43.5858 73.5244 34.8245 59.6745 33.3363 53.4049Z" fill="#2F2E41"/>
<path d="M292.295 214.569C292.551 212.903 292.208 211.2 291.328 209.763C290.448 208.325 289.088 207.245 287.488 206.715L189.075 173.938C188.131 173.623 187.132 173.508 186.142 173.601L161.475 175.934L147.321 177.277L121.202 179.745C119.625 179.896 118.143 180.566 116.988 181.65C115.832 182.734 115.07 184.17 114.819 185.735L101.557 268.572C101.306 270.188 101.614 271.841 102.429 273.258C103.245 274.676 104.519 275.773 106.042 276.368L205.482 314.753C205.949 314.934 206.434 315.064 206.928 315.141C207.649 315.258 208.382 315.263 209.104 315.157L273.36 305.634C274.875 305.415 276.28 304.713 277.365 303.632C278.45 302.551 279.157 301.149 279.383 299.635L292.295 214.569Z" fill="#A9A9A9"/>
<path d="M108.296 270.532L207.736 308.914C207.881 308.971 208.039 308.99 208.193 308.968L272.44 299.445C272.631 299.419 272.807 299.332 272.944 299.196C273.08 299.06 273.168 298.884 273.195 298.694L286.115 213.627C286.144 213.419 286.1 213.208 285.991 213.029C285.882 212.85 285.714 212.714 285.515 212.645L284.854 212.422L187.096 179.876C187.052 179.86 187.005 179.849 186.959 179.842C186.883 179.829 186.805 179.825 186.729 179.831L126.564 185.524L121.79 185.972C121.594 185.993 121.41 186.077 121.267 186.212C121.124 186.347 121.028 186.525 120.995 186.72L107.736 269.554C107.704 269.756 107.742 269.964 107.844 270.142C107.945 270.319 108.105 270.457 108.296 270.532V270.532Z" fill="#2A83FF"/>
<path d="M126.564 185.524L186.729 179.831C186.806 179.825 186.883 179.829 186.959 179.842C187.005 179.849 187.052 179.86 187.096 179.876L284.854 212.422L259.067 215.151L249.417 216.168L221.956 219.069C221.876 219.073 221.795 219.072 221.715 219.066C221.667 219.051 221.618 219.037 221.559 219.021L126.564 185.524Z" fill="#2F2E41"/>
<path d="M106.04 276.373L205.48 314.756C205.948 314.936 206.434 315.063 206.931 315.136C207.651 315.255 208.385 315.264 209.108 315.163L273.355 305.64C274.871 305.42 276.276 304.717 277.362 303.635C278.448 302.554 279.156 301.152 279.383 299.637L292.293 214.569C292.484 213.315 292.34 212.032 291.875 210.852C291.809 210.695 291.744 210.538 291.668 210.39C291.156 209.313 290.376 208.384 289.404 207.693C288.818 207.273 288.172 206.943 287.488 206.716L287.372 206.675L189.08 173.937C188.678 173.809 188.268 173.71 187.853 173.639C187.285 173.559 186.709 173.548 186.138 173.606L161.475 175.931L147.323 177.281L121.199 179.747C120.131 179.847 119.099 180.188 118.181 180.745C118.11 180.779 118.042 180.82 117.978 180.866C117.933 180.896 117.89 180.928 117.849 180.964C117.047 181.511 116.365 182.216 115.845 183.035C115.325 183.854 114.976 184.77 114.822 185.728L101.552 268.571C101.301 270.188 101.609 271.843 102.425 273.261C103.241 274.679 104.516 275.777 106.04 276.373V276.373ZM116.582 186.017C116.743 185.024 117.184 184.097 117.852 183.345C118.054 183.103 118.281 182.883 118.528 182.687C119.202 182.141 120 181.769 120.851 181.603C121.019 181.568 121.189 181.544 121.361 181.531L165.345 177.376L186.31 175.381C186.452 175.364 186.583 175.366 186.714 175.359C187.031 175.352 187.349 175.376 187.661 175.429C187.949 175.467 188.232 175.534 188.506 175.631L286.915 208.409C286.992 208.437 287.06 208.463 287.138 208.491C288.032 208.824 288.819 209.396 289.411 210.145C289.879 210.718 290.22 211.383 290.414 212.098C290.607 212.812 290.647 213.559 290.532 214.29L277.611 299.367C277.441 300.501 276.912 301.551 276.1 302.362C275.288 303.173 274.237 303.701 273.102 303.868L208.845 313.39C207.926 313.521 206.988 313.415 206.122 313.079L106.681 274.707C105.542 274.258 104.588 273.435 103.978 272.372C103.368 271.31 103.136 270.072 103.322 268.861L116.582 186.017Z" fill="#3F3D56"/>
<path d="M117.635 181.416C117.687 181.265 117.78 181.132 117.903 181.03C117.943 180.997 117.986 180.968 118.032 180.941C118.073 180.925 118.116 180.899 118.158 180.883C118.357 180.803 118.579 180.799 118.782 180.872L120.851 181.603L221.967 217.272L245.632 214.772L258.875 213.375L286.905 210.407L289.411 210.145L289.898 210.091C290.108 210.072 290.318 210.126 290.492 210.246C290.666 210.365 290.793 210.541 290.85 210.744C290.864 210.791 290.873 210.839 290.877 210.887C290.898 211.08 290.855 211.274 290.756 211.44C290.657 211.607 290.506 211.736 290.327 211.809C290.248 211.842 290.164 211.865 290.079 211.876L286.67 212.233L259.067 215.151L249.417 216.168L221.956 219.069C221.876 219.073 221.796 219.072 221.715 219.066C221.667 219.051 221.618 219.037 221.559 219.021L118.528 182.687L118.178 182.563C118.098 182.536 118.023 182.495 117.959 182.441C117.803 182.327 117.687 182.166 117.629 181.981C117.571 181.797 117.573 181.599 117.635 181.416Z" fill="#3F3D56"/>
<path d="M207.202 315.396C206.969 315.359 206.76 315.231 206.621 315.041C206.482 314.851 206.424 314.613 206.459 314.38L220.976 218.046C221.011 217.812 221.138 217.601 221.329 217.46C221.52 217.32 221.758 217.26 221.993 217.296L222.001 217.297C222.233 217.334 222.442 217.462 222.581 217.652C222.72 217.842 222.778 218.08 222.743 218.313L208.226 314.647C208.191 314.881 208.064 315.092 207.873 315.233C207.683 315.373 207.444 315.433 207.21 315.397L207.202 315.396Z" fill="#3F3D56"/>
<path d="M243.998 309.285L234.344 310.304L245.637 214.769C245.637 214.769 258.532 212.434 258.876 213.371C259.089 213.929 244.09 308.672 243.998 309.285Z" fill="#3F3D56"/>
<path d="M118.181 182.561L117.921 226.128L195.047 255.516L222.744 218.312L118.181 182.561Z" fill="#3F3D56"/>
<path d="M289.414 210.146C288.769 209.336 287.901 208.732 286.917 208.409L188.511 175.632C188.235 175.539 187.951 175.47 187.663 175.425C187.349 175.371 187.031 175.347 186.712 175.354L186.872 174.357L187.857 173.643L211.225 156.725L289.266 180.642L289.401 207.693L289.414 210.146Z" fill="#3F3D56"/>
<path d="M122.111 252.501C122.222 252.512 122.332 252.535 122.437 252.569L152.631 262.486C153.009 262.61 153.322 262.88 153.502 263.235C153.682 263.59 153.713 264.001 153.589 264.379C153.465 264.757 153.195 265.071 152.84 265.25C152.485 265.43 152.074 265.461 151.696 265.337L121.502 255.42C121.151 255.305 120.856 255.065 120.671 254.745C120.487 254.426 120.426 254.049 120.502 253.688C120.577 253.327 120.783 253.006 121.08 252.787C121.377 252.568 121.744 252.466 122.111 252.501H122.111Z" fill="white"/>
<path d="M207.623 270.15C206.067 270.826 204.383 271.152 202.688 271.106C200.993 271.061 199.328 270.644 197.811 269.885C196.295 269.126 194.963 268.045 193.91 266.715C192.857 265.386 192.108 263.843 191.715 262.193L150.703 258.049L164.234 241.443L201.105 247.924C203.92 247.449 206.812 248.023 209.232 249.538C211.652 251.052 213.433 253.402 214.236 256.142C215.039 258.882 214.81 261.821 213.591 264.402C212.372 266.984 210.249 269.029 207.623 270.15V270.15Z" fill="#FFB8B8"/>
<path d="M182.397 263.562L86.6889 254.744L86.5575 254.593L16.707 174.556C12.11 167.514 10.3792 158.98 11.8689 150.703C13.3587 142.426 17.9562 135.031 24.7201 130.033V130.033C28.4627 127.275 32.747 125.34 37.2911 124.357C41.8351 123.373 46.536 123.364 51.0841 124.328C55.6322 125.293 59.9244 127.209 63.6784 129.952C67.4323 132.695 70.5628 136.202 72.8637 140.242L115.886 215.786L183.452 242.933L182.397 263.562Z" fill="#3F3D56"/>
<path d="M422.621 109.645C420.244 92.2113 417.263 73.4934 404.967 60.9083C401.065 56.915 396.395 53.7532 391.239 51.6135C386.082 49.4737 380.546 48.4004 374.963 48.4582C369.38 48.516 363.867 49.7037 358.756 51.9497C353.645 54.1957 349.041 57.4535 345.223 61.5266C336.272 71.0754 332.319 84.4833 331.958 97.5665C331.596 110.65 334.51 123.587 337.742 136.27C354.848 136.612 371.827 133.27 387.528 126.471C391.454 124.766 395.317 122.84 399.465 121.784C403.613 120.729 406.569 123.385 410.428 125.238L412.546 121.182C414.28 124.409 419.648 123.452 421.596 120.35C423.543 117.247 423.116 113.274 422.621 109.645Z" fill="#2F2E41"/>
<path d="M354.814 206.954L284.938 208.448C283.865 206.593 282.276 205.09 280.365 204.122C278.453 203.154 276.301 202.762 274.171 202.994C272.041 203.226 270.024 204.073 268.366 205.431C266.708 206.788 265.48 208.599 264.832 210.641C264.184 212.684 264.144 214.871 264.717 216.936C265.289 219.001 266.449 220.855 268.056 222.273C269.663 223.691 271.647 224.611 273.768 224.921C275.888 225.232 278.053 224.919 279.999 224.022C289.266 224.549 361.771 234.839 366.096 228.208C370.486 221.477 393.92 197.721 393.92 197.721L375.908 172.078L354.814 206.954Z" fill="#9E616A"/>
<path d="M371.842 126.894C389.973 126.894 404.672 112.195 404.672 94.0637C404.672 75.9321 389.973 61.2336 371.842 61.2336C353.71 61.2336 339.012 75.9321 339.012 94.0637C339.012 112.195 353.71 126.894 371.842 126.894Z" fill="#9E616A"/>
<path d="M424.424 157.232C420.556 149.532 418.676 140.02 410.428 137.524C404.858 135.838 382.331 138.364 377.255 141.21C368.811 145.943 376.463 154.812 371.481 163.112C366.066 172.135 351.349 190.242 345.934 199.264C342.211 205.467 354.751 223.674 352.738 230.622C350.725 237.571 350.629 245.37 354.058 251.74C357.127 257.441 352.686 262.485 355.773 268.177C358.982 274.096 362.921 296.229 359.934 302.264L357.934 308.264C377.781 309.431 394.469 285.72 414.192 283.223C419.091 282.602 424.178 281.792 428.215 278.948C434.161 274.76 436.512 267.159 437.981 260.035C445.052 225.215 440.28 189.03 424.424 157.232V157.232Z" fill="#3F3D56"/>
<path d="M454.18 238.534C451.416 230.988 446.411 197.997 446.411 197.997L415.087 197.079L430.402 234.851L388.611 293.354C388.611 293.354 388.689 293.482 388.829 293.711C386.632 293.359 384.38 293.678 382.367 294.626C380.354 295.575 378.674 297.109 377.548 299.028C376.421 300.947 375.9 303.162 376.052 305.382C376.205 307.602 377.024 309.724 378.403 311.471C379.782 313.218 381.655 314.508 383.779 315.172C385.903 315.836 388.178 315.844 390.306 315.194C392.435 314.544 394.317 313.267 395.707 311.529C397.098 309.792 397.931 307.675 398.099 305.456C398.253 305.544 398.433 305.576 398.608 305.546C398.782 305.516 398.941 305.426 399.057 305.292C403.707 299.456 456.945 246.08 454.18 238.534Z" fill="#9E616A"/>
<path d="M457.365 217.699C454.49 205.564 451.593 193.363 446.746 181.873C441.899 170.383 434.96 159.53 425.199 151.768C422.079 149.286 418.59 147.095 414.679 146.324C410.767 145.552 406.359 146.416 403.612 149.305C399.216 153.929 400.539 161.35 402.151 167.523C406.905 185.723 411.659 203.924 416.414 222.124C430.143 220.669 443.872 219.214 457.602 217.758L457.365 217.699Z" fill="#3F3D56"/>
<path d="M412.07 98.6173C410.86 90.6753 409.598 82.6669 406.757 75.1888C403.917 67.7106 399.338 60.7063 392.771 56.4699C382.372 49.7629 368.909 51.0564 357.25 54.9145C348.234 57.8982 339.432 62.4331 333.074 69.7238C326.716 77.0145 323.145 87.4176 325.51 96.9505C337.946 94.0122 350.383 91.0739 362.819 88.1356L361.457 89.0976C365.541 91.1338 369.107 94.0735 371.884 97.6936C374.662 101.314 376.579 105.519 377.488 109.99C378.378 114.516 378.25 119.183 377.114 123.653C375.979 128.123 373.864 132.285 370.923 135.838C379.404 132.829 387.886 129.82 396.368 126.812C401.603 124.955 407.206 122.815 410.31 118.051C413.91 112.528 413.073 105.208 412.07 98.6173Z" fill="#2F2E41"/>
</svg>
