<svg width="570" height="670" viewBox="0 0 570 670" fill="none" xmlns="http://www.w3.org/2000/svg">
<path d="M308.074 217.663C308.074 217.663 294.711 274.084 311.043 274.084C327.376 274.084 365.98 210.239 365.98 210.239L352.617 193.906L328.632 227.206L327.376 210.239L308.074 217.663Z" fill="#A0616A"/>
<path d="M362.419 212.692C369.599 212.692 375.419 206.871 375.419 199.692C375.419 192.512 369.599 186.692 362.419 186.692C355.239 186.692 349.419 192.512 349.419 199.692C349.419 206.871 355.239 212.692 362.419 212.692Z" fill="#A0616A"/>
<path d="M296.744 601.939L314.047 601.938L322.28 535.192L296.74 535.193L296.744 601.939Z" fill="#A0616A"/>
<path d="M296.134 619.991L349.347 619.989V619.316C349.346 613.823 347.164 608.555 343.28 604.671C339.396 600.787 334.128 598.604 328.635 598.604H328.634L318.914 591.23L300.778 598.605L296.133 598.605L296.134 619.991Z" fill="#2F2E41"/>
<path d="M110.607 580.35L126.09 588.076L163.262 532.031L140.41 520.627L110.607 580.35Z" fill="#A0616A"/>
<path d="M102 596.229L149.613 619.991L149.914 619.389C152.366 614.474 152.766 608.786 151.025 603.576C149.285 598.366 145.546 594.061 140.631 591.608L140.63 591.607L135.226 580.668L115.705 579.169L111.549 577.094L102 596.229Z" fill="#2F2E41"/>
<path d="M184.867 320.019C184.867 320.019 177.952 403.167 176.467 420.985C175.449 432.154 172.953 443.138 169.043 453.65C169.043 453.65 166.074 459.589 166.074 465.528L132.419 526.692C132.419 526.692 122.135 534.251 123.619 540.19C125.104 546.129 117.419 549.692 117.419 549.692L152.86 556.523C152.86 556.523 151.376 552.068 155.83 550.583C160.284 549.099 163.83 536.221 163.83 536.221L213.586 455.134L249.221 380.896C249.221 380.896 270.007 447.711 274.462 455.134C274.462 455.134 290.794 538.281 293.764 545.705C296.733 553.129 298.218 553.129 296.733 556.099C295.248 559.068 295.248 562.038 296.733 563.523C298.218 565.007 326.429 563.523 326.429 563.523L319.005 458.104L305.642 331.899L237.343 311.112L184.867 320.019Z" fill="#2F2E41"/>
<path d="M251.736 121.523C268.956 121.523 282.916 107.563 282.916 90.3426C282.916 73.1223 268.956 59.1625 251.736 59.1625C234.516 59.1625 220.556 73.1223 220.556 90.3426C220.556 107.563 234.516 121.523 251.736 121.523Z" fill="#A0616A"/>
<path d="M308.611 167.089L271.493 144.601C271.493 144.601 270.465 130.636 259.889 129.979C254.579 129.649 246.611 129.144 234.654 128.373C232.127 128.211 230.422 142.036 227.526 141.848L188.345 152.241L194.284 253.206C194.284 253.206 185.376 293.295 188.345 300.718C191.315 308.142 180.921 311.112 183.891 312.596C186.86 314.081 183.891 324.475 183.891 324.475C183.891 324.475 241.797 354.17 305.642 331.898L299.703 312.596C300.511 310.073 300.663 307.386 300.143 304.788C299.623 302.19 298.45 299.767 296.733 297.749C296.733 297.749 302.672 288.84 295.248 281.416C295.248 281.416 298.218 268.053 290.794 262.114L289.309 241.328L293.764 230.934L308.611 167.089Z" fill="#3F3D56"/>
<path d="M224.68 108.155L223.808 106.131C223.696 105.869 212.669 79.8015 222.443 63.7224C226.967 56.2785 235.194 52.0759 246.894 51.2321C265.202 49.9084 277.731 54.2511 284.145 64.1306C285.221 65.8049 285.825 67.7381 285.895 69.7269C285.965 71.7157 285.498 73.6866 284.543 75.4324C283.588 77.1781 282.18 78.6343 280.467 79.6478C278.754 80.6612 276.8 81.1945 274.81 81.1916H274.564L271.201 76.8239L271.005 77.2487C269.787 79.8835 266.99 81.3259 263.714 81.0099C263.157 80.9699 262.663 81.4509 262.267 82.4802C262.134 82.9304 261.881 83.3365 261.537 83.6556C261.193 83.9748 260.769 84.1954 260.309 84.2942C257.889 84.7653 254.439 81.7165 252.894 80.197C252.835 80.5467 252.701 80.8796 252.502 81.1731C252.302 81.4666 252.042 81.7138 251.739 81.8982C250.112 82.8372 247.579 81.6106 246.852 81.2199C241.06 82.4504 237.311 82.1213 235.705 80.2429C234.617 87.9465 232.28 101.813 229.477 102.581C229.185 102.649 228.878 102.62 228.602 102.5C228.327 102.379 228.098 102.174 227.948 101.913C227.273 101.037 226.67 100.6 226.294 100.723C225.382 101.013 224.844 104.015 224.767 105.952L224.68 108.155Z" fill="#2F2E41"/>
<path d="M292.279 168.574L307.09 166.168C317.76 176.419 325.028 189.696 327.913 204.208C332.368 227.965 333.852 232.419 333.852 232.419L298.218 241.328L278.916 204.208L292.279 168.574Z" fill="#3F3D56"/>
<path d="M226.556 199.474L217.403 315.508L450.988 333.934L460.141 217.9L226.556 199.474Z" fill="white"/>
<path d="M251.512 208.463C245.795 204.381 238.538 204.086 235.765 204.145C236.611 206.785 239.24 213.556 244.956 217.64C250.686 221.733 257.935 222.019 260.703 221.962C259.858 219.323 257.229 212.548 251.512 208.463Z" fill="#2A83FF"/>
<path d="M274.062 282.298L236.555 279.34C235.447 279.252 234.332 279.384 233.275 279.727C232.218 280.071 231.238 280.619 230.393 281.341C229.547 282.062 228.852 282.944 228.348 283.934C227.843 284.925 227.538 286.005 227.45 287.113C227.363 288.221 227.495 289.336 227.838 290.393C228.181 291.451 228.73 292.43 229.451 293.275C230.173 294.121 231.055 294.816 232.045 295.321C233.035 295.826 234.116 296.13 235.224 296.218V296.218L272.731 299.176C274.969 299.353 277.186 298.633 278.893 297.175C280.601 295.718 281.659 293.641 281.836 291.403C282.012 289.165 281.292 286.948 279.835 285.241C278.377 283.533 276.3 282.475 274.062 282.298V282.298Z" fill="#2A83FF"/>
<path d="M450.933 206.621L240.643 190.031C238.197 189.838 235.737 190.129 233.403 190.887C231.07 191.646 228.908 192.856 227.043 194.449C225.177 196.043 223.644 197.988 222.53 200.174C221.416 202.36 220.743 204.744 220.551 207.19L212.463 309.641C212.075 314.582 213.664 319.475 216.882 323.245C220.101 327.014 224.684 329.351 229.625 329.742L439.915 346.332C442.361 346.525 444.821 346.234 447.154 345.476C449.488 344.718 451.649 343.507 453.515 341.914C455.38 340.321 456.914 338.375 458.028 336.189C459.142 334.003 459.814 331.619 460.007 329.173L467.692 231.798L467.847 229.808L468.092 226.713C468.284 224.267 467.993 221.807 467.235 219.473C466.477 217.14 465.267 214.979 463.673 213.113C462.08 211.247 460.135 209.714 457.949 208.6C455.763 207.486 453.379 206.813 450.933 206.621V206.621ZM444.723 295.759L443.39 312.637C443.147 315.618 441.733 318.382 439.458 320.323C437.182 322.265 434.231 323.227 431.249 322.998L403.115 320.781C400.134 320.538 397.371 319.124 395.429 316.849C393.488 314.573 392.526 311.622 392.755 308.64L394.087 291.761C394.332 288.781 395.746 286.018 398.021 284.077C400.296 282.135 403.247 281.173 406.229 281.4L434.352 283.62C437.333 283.864 440.097 285.278 442.039 287.552C443.982 289.826 444.947 292.776 444.723 295.759V295.759ZM225.589 286.958C225.808 284.226 227.1 281.693 229.184 279.914C231.268 278.135 233.972 277.255 236.704 277.467L274.209 280.427C275.564 280.532 276.885 280.903 278.097 281.518C279.308 282.133 280.387 282.981 281.27 284.014C282.154 285.046 282.825 286.242 283.246 287.534C283.667 288.826 283.83 290.189 283.724 291.543C283.618 292.898 283.247 294.219 282.63 295.43C282.014 296.641 281.165 297.719 280.132 298.602C279.099 299.484 277.902 300.155 276.61 300.575C275.318 300.995 273.955 301.156 272.6 301.049L272.581 301.054L235.075 298.094C233.721 297.987 232.401 297.614 231.191 296.996C229.98 296.378 228.904 295.527 228.023 294.493C227.142 293.459 226.473 292.261 226.056 290.968C225.638 289.675 225.48 288.312 225.589 286.958V286.958ZM233.619 203.476L233.362 202.427L234.441 202.328C234.863 202.283 244.84 201.387 252.606 206.934C260.372 212.482 262.754 222.215 262.857 222.622L263.104 223.674L262.027 223.783C260.499 223.896 258.965 223.886 257.438 223.752C252.583 223.468 247.893 221.884 243.86 219.166C236.094 213.619 233.712 203.885 233.619 203.476V203.476Z" fill="#2A83FF"/>
<path d="M413.172 306.953L400.982 305.991C400.113 305.924 399.252 306.205 398.59 306.772C397.927 307.338 397.516 308.145 397.448 309.015C397.379 309.884 397.658 310.745 398.224 311.409C398.789 312.072 399.595 312.485 400.465 312.555L412.654 313.516C413.524 313.583 414.385 313.303 415.047 312.736C415.71 312.169 416.121 311.362 416.189 310.493C416.258 309.624 415.979 308.762 415.413 308.099C414.847 307.435 414.041 307.023 413.172 306.953V306.953Z" fill="#2A83FF"/>
<path d="M435.676 308.728L423.487 307.766C422.617 307.7 421.757 307.981 421.095 308.548C420.433 309.114 420.022 309.921 419.954 310.79C419.885 311.659 420.164 312.52 420.729 313.183C421.295 313.847 422.1 314.259 422.969 314.33L435.159 315.292C436.028 315.358 436.888 315.077 437.55 314.51C438.212 313.943 438.623 313.137 438.691 312.268C438.76 311.399 438.481 310.538 437.916 309.875C437.35 309.211 436.545 308.799 435.676 308.728V308.728Z" fill="#2A83FF"/>
<path d="M413.838 298.514L401.648 297.552C400.779 297.486 399.919 297.767 399.257 298.333C398.594 298.9 398.184 299.707 398.115 300.576C398.047 301.445 398.326 302.305 398.891 302.969C399.456 303.633 400.261 304.045 401.13 304.116L413.32 305.077C414.19 305.144 415.05 304.864 415.713 304.297C416.376 303.73 416.787 302.923 416.855 302.054C416.924 301.184 416.645 300.323 416.079 299.66C415.513 298.996 414.707 298.584 413.838 298.514V298.514Z" fill="#2A83FF"/>
<path d="M436.342 300.289L424.152 299.327C423.283 299.26 422.422 299.541 421.76 300.108C421.097 300.675 420.686 301.481 420.618 302.351C420.549 303.22 420.828 304.081 421.394 304.745C421.959 305.409 422.765 305.821 423.635 305.891L435.824 306.852C436.694 306.92 437.555 306.639 438.217 306.072C438.88 305.505 439.291 304.698 439.359 303.829C439.428 302.96 439.149 302.099 438.583 301.435C438.017 300.771 437.211 300.359 436.342 300.289V300.289Z" fill="#2A83FF"/>
<path d="M414.504 290.074L402.314 289.113C401.444 289.046 400.584 289.326 399.921 289.893C399.258 290.46 398.847 291.267 398.779 292.136C398.71 293.006 398.989 293.867 399.555 294.531C400.121 295.194 400.927 295.606 401.796 295.677L413.986 296.638C414.855 296.705 415.715 296.424 416.377 295.857C417.04 295.29 417.45 294.484 417.518 293.615C417.587 292.746 417.308 291.885 416.743 291.221C416.178 290.558 415.372 290.145 414.504 290.074V290.074Z" fill="#2A83FF"/>
<path d="M437.008 291.85L424.818 290.888C423.949 290.822 423.089 291.103 422.427 291.669C421.764 292.236 421.354 293.043 421.285 293.912C421.217 294.781 421.496 295.641 422.061 296.305C422.626 296.969 423.431 297.381 424.3 297.452L436.49 298.413C437.359 298.48 438.219 298.199 438.882 297.632C439.544 297.065 439.954 296.259 440.023 295.39C440.091 294.521 439.812 293.66 439.247 292.996C438.682 292.333 437.877 291.92 437.008 291.85V291.85Z" fill="#2A83FF"/>
<path d="M217.425 239.516L217.268 241.511L464.121 260.902L464.278 258.908L217.425 239.516Z" fill="white"/>
<path d="M467.847 229.808L467.692 231.798L459.101 231.124L367.568 223.934L367.733 221.942L459.256 229.134L467.847 229.808Z" fill="#3F3D56"/>
<path d="M166.074 208.663C166.074 208.663 152.711 265.084 169.043 265.084C185.376 265.084 223.98 201.239 223.98 201.239L210.617 184.906L186.632 218.206L185.376 201.239L166.074 208.663Z" fill="#A0616A"/>
<path d="M220.419 203.692C227.599 203.692 233.419 197.871 233.419 190.692C233.419 183.512 227.599 177.692 220.419 177.692C213.239 177.692 207.419 183.512 207.419 190.692C207.419 197.871 213.239 203.692 220.419 203.692Z" fill="#A0616A"/>
<path d="M199.161 161.15L190.253 152.242C190.253 152.242 172.435 162.635 170.951 173.028C169.466 183.422 162.042 216.087 162.042 216.087L189.51 218.314L198.419 204.951L199.161 161.15Z" fill="#3F3D56"/>
</svg>
