<svg id="Layer_1" data-name="Layer 1" xmlns="http://www.w3.org/2000/svg" xmlns:xlink="http://www.w3.org/1999/xlink" width="202.3393" height="112.286" viewBox="0 0 202.3393 112.286"><defs><style>.cls-1{fill:url(#linear-gradient);}.cls-2{fill:url(#linear-gradient-2);}.cls-3{fill:url(#linear-gradient-3);}.cls-4{fill:url(#linear-gradient-4);}</style><linearGradient id="linear-gradient" x1="140.6044" y1="-76.9079" x2="203.0456" y2="-47.791" gradientTransform="matrix(0.9063, -0.4226, 0.4226, 0.9063, -56.999, 185.2672)" gradientUnits="userSpaceOnUse"><stop offset="0" stop-color="#2a83ff"/><stop offset="0.2003" stop-color="#2a7fff"/><stop offset="0.4165" stop-color="#2a72ff"/><stop offset="0.64" stop-color="#2a5cff"/><stop offset="0.8672" stop-color="#2a3eff"/><stop offset="1" stop-color="#2a29ff"/></linearGradient><linearGradient id="linear-gradient-2" x1="0" y1="96.7958" x2="30.9804" y2="96.7958" gradientTransform="matrix(1, 0, 0, 1, 0, 0)" xlink:href="#linear-gradient"/><linearGradient id="linear-gradient-3" x1="115.8895" y1="80.798" x2="146.8695" y2="80.798" gradientTransform="matrix(1, 0, 0, 1, 0, 0)" xlink:href="#linear-gradient"/><linearGradient id="linear-gradient-4" x1="115.8895" y1="37.173" x2="202.3393" y2="37.173" gradientTransform="matrix(1, 0, 0, 1, 0, 0)" xlink:href="#linear-gradient"/></defs><path class="cls-1" d="M91.3494,112.286a15.5575,15.5575,0,0,1-14.0517-8.9492L39.389,22.041A15.5,15.5,0,0,1,53.4144,0,15.559,15.559,0,0,1,67.4666,8.9487L105.3748,90.244a15.5,15.5,0,0,1-14.0254,22.042Z"/><circle class="cls-2" cx="15.4902" cy="96.7958" r="15.4902"/><path class="cls-3" d="M146.87,49.313v47.48a15.49,15.49,0,1,1-30.98,0V61.833a12.53,12.53,0,0,1,12.51-12.52Z"/><path class="cls-4" d="M202.3393,37.173a37.2129,37.2129,0,0,1-37.17,37.17h-36.77a12.515,12.515,0,0,1,0-25.03h36.77a12.145,12.145,0,1,0,0-24.29h-36.77a12.51,12.51,0,1,1,0-25.02h36.77A37.2063,37.2063,0,0,1,202.3393,37.173Z"/></svg>