<svg xmlns="http://www.w3.org/2000/svg" width="20.16" height="12.48" viewBox="0 0 20.16 12.48"><defs><style>.cls-1{fill:#2a83ff;}</style></defs><g id="Layer_2" data-name="Layer 2"><g id="Layer_1-2" data-name="Layer 1"><path class="cls-1" d="M18.66,1a.5006.5006,0,0,1,.5.5v9.48a.5006.5006,0,0,1-.5.5H1.5a.5006.5006,0,0,1-.5-.5V1.5A.5006.5006,0,0,1,1.5,1H18.66m0-1H1.5A1.5,1.5,0,0,0,0,1.5v9.48a1.5,1.5,0,0,0,1.5,1.5H18.66a1.5,1.5,0,0,0,1.5-1.5V1.5A1.5,1.5,0,0,0,18.66,0Z"/><rect class="cls-1" y="1.92" width="20.16" height="1.92"/><rect class="cls-1" x="13.44" y="4.8" width="3.84" height="4.8" rx="0.8041"/></g></g></svg>