<svg xmlns="http://www.w3.org/2000/svg" width="20.16" height="12.48" viewBox="0 0 20.16 12.48"><defs><style>.cls-1{fill:#2a83ff;}</style></defs><g id="Layer_2" data-name="Layer 2"><g id="Layer_1-2" data-name="Layer 1"><path class="cls-1" d="M20.16,1.5v.42H0V1.5A1.498,1.498,0,0,1,1.5,0H18.66A1.498,1.498,0,0,1,20.16,1.5Z"/><path class="cls-1" d="M0,3.84v7.14a1.498,1.498,0,0,0,1.5,1.5H18.66a1.498,1.498,0,0,0,1.5-1.5V3.84ZM17.28,8.8a.8024.8024,0,0,1-.8.8H14.24a.8024.8024,0,0,1-.8-.8V5.6a.8024.8024,0,0,1,.8-.8h2.24a.8024.8024,0,0,1,.8.8Z"/></g></g></svg>