<svg xmlns="http://www.w3.org/2000/svg" xmlns:xlink="http://www.w3.org/1999/xlink" width="670.7509" height="244.9997" viewBox="0 0 670.7509 244.9997"><defs><style>.cls-1{fill:url(#linear-gradient);}.cls-2{fill:url(#linear-gradient-2);}.cls-3{fill:url(#linear-gradient-3);}.cls-4{fill:url(#linear-gradient-4);}.cls-5{fill:url(#linear-gradient-5);}</style><linearGradient id="linear-gradient" x1="255.2748" y1="570.2463" x2="634.1965" y2="570.2463" gradientTransform="matrix(1, 0, 0, -1, 0, 603.8893)" gradientUnits="userSpaceOnUse"><stop offset="0" stop-color="#2a83ff"/><stop offset="0.2003" stop-color="#2a7fff"/><stop offset="0.4165" stop-color="#2a72ff"/><stop offset="0.64" stop-color="#2a5cff"/><stop offset="0.8672" stop-color="#2a3eff"/><stop offset="1" stop-color="#2a29ff"/></linearGradient><linearGradient id="linear-gradient-2" x1="114.3122" y1="713.7713" x2="175.9016" y2="685.0518" gradientTransform="matrix(0.9063, -0.4226, -0.4226, -0.9063, 235.4602, 845.1671)" xlink:href="#linear-gradient"/><linearGradient id="linear-gradient-3" x1="0" y1="413.8202" x2="30.5598" y2="413.8202" xlink:href="#linear-gradient"/><linearGradient id="linear-gradient-4" x1="114.3155" y1="429.5488" x2="144.8755" y2="429.5488" xlink:href="#linear-gradient"/><linearGradient id="linear-gradient-5" x1="114.3166" y1="472.6331" x2="199.5918" y2="472.6331" xlink:href="#linear-gradient"/></defs><g id="Layer_2" data-name="Layer 2"><g id="Layer_1-2" data-name="Layer 1"><path d="M240.6854,201.48a32.1761,32.1761,0,0,1-13.7022-10.8222A27.47,27.47,0,0,1,222,174.309h18.9966a17.1434,17.1434,0,0,0,5.5274,11.5225q4.905,4.5175,13.78,4.5146,9.1854,0,14.3252-4.4375a14.4244,14.4244,0,0,0,5.1382-11.4443,12.5089,12.5089,0,0,0-3.1919-8.875,21.376,21.376,0,0,0-7.9414-5.2939,120.1485,120.1485,0,0,0-13.1572-4.0489,122.9351,122.9351,0,0,1-17.2056-5.6836,28.4092,28.4092,0,0,1-11.2886-8.9526q-4.6713-6.0724-4.6713-16.1934a28.7808,28.7808,0,0,1,4.6713-16.3491,29.8417,29.8417,0,0,1,13.08-10.7441,47.52,47.52,0,0,1,19.4634-3.7368q15.7258,0,25.77,7.8632t11.1333,21.5655h-19.62a14.2155,14.2155,0,0,0-5.6055-10.1211q-5.1385-4.2042-13.5463-4.2041-7.6311,0-12.4566,3.8926-4.828,3.8942-4.8271,11.2109a11.373,11.373,0,0,0,3.0366,8.1748,21.4267,21.4267,0,0,0,7.707,5.06,119.5045,119.5045,0,0,0,12.7681,4.0484,133.6622,133.6622,0,0,1,17.5171,5.917,29.1794,29.1794,0,0,1,11.5224,9.1084q4.7475,6.1538,4.7491,16.4277a29.5331,29.5331,0,0,1-4.4375,15.57,32,32,0,0,1-12.9239,11.7559q-8.4888,4.437-20.0083,4.4375A48.4282,48.4282,0,0,1,240.6854,201.48Z"/><path d="M340.9588,121.0571a37.5742,37.5742,0,0,1,17.5948-4.0484,38.9045,38.9045,0,0,1,35.0341,21.021,48.064,48.064,0,0,1,5.294,22.8892,49.4481,49.4481,0,0,1-5.294,23.1221,39.57,39.57,0,0,1-14.5586,15.8818,38.3758,38.3758,0,0,1-20.4755,5.6836,37.2109,37.2109,0,0,1-17.4385-3.9707,39.02,39.02,0,0,1-12.4571-9.8877V245h-17.75V118.41h17.75V131.022A36.0782,36.0782,0,0,1,340.9588,121.0571ZM377.161,145.581a25.1173,25.1173,0,0,0-9.6543-9.81,25.9447,25.9447,0,0,0-12.8457-3.3476,25.1989,25.1989,0,0,0-12.69,3.4253,25.4887,25.4887,0,0,0-9.6543,9.9653A31.0553,31.0553,0,0,0,328.658,161.23a31.4987,31.4987,0,0,0,3.6592,15.4922,25.311,25.311,0,0,0,22.3438,13.4688,25.0471,25.0471,0,0,0,12.8457-3.503,25.8279,25.8279,0,0,0,9.6543-10.1992,31.9761,31.9761,0,0,0,3.6592-15.57A30.6474,30.6474,0,0,0,377.161,145.581Z"/><path d="M408.1453,138.03a39.1382,39.1382,0,0,1,35.1124-21.02,37.456,37.456,0,0,1,17.6728,3.9707,35.8991,35.8991,0,0,1,12.0674,9.8872V118.41h17.9062v85.7944H472.9979V191.437a35.2579,35.2579,0,0,1-12.3008,10.12,39.8074,39.8074,0,0,1-37.9932-1.6348A40.2919,40.2919,0,0,1,408.1453,184.04a48.8514,48.8514,0,0,1-5.371-23.1221A47.4885,47.4885,0,0,1,408.1453,138.03Zm61.1934,7.7852a25.701,25.701,0,0,0-9.5762-9.9653,25.0768,25.0768,0,0,0-12.7675-3.4253,25.5078,25.5078,0,0,0-12.7686,3.3476,25.2428,25.2428,0,0,0-9.5752,9.81,30.616,30.616,0,0,0-3.6592,15.3374,31.9446,31.9446,0,0,0,3.6592,15.57,25.7922,25.7922,0,0,0,9.6533,10.1992,24.76,24.76,0,0,0,12.69,3.503,25.0446,25.0446,0,0,0,12.7675-3.4258,25.5459,25.5459,0,0,0,9.5762-10.043,31.53,31.53,0,0,0,3.6592-15.4922,31.0853,31.0853,0,0,0-3.6587-15.4161Z"/><path d="M505.9286,137.9511a38.214,38.214,0,0,1,14.87-15.4927,43.0183,43.0183,0,0,1,21.7988-5.45q15.5685,0,25.7695,7.396,10.197,7.3975,13.78,21.0982H562.995a20.2585,20.2585,0,0,0-7.4737-9.9649q-5.1387-3.58-12.9238-3.5815-10.9,0-17.3614,7.7075T518.7742,161.23q.0011,13.8587,6.4619,21.6426,6.46,7.7886,17.3614,7.7852,15.416,0,20.3975-13.5459h19.1523a38.339,38.339,0,0,1-14.0137,20.7871q-10.2759,7.7066-25.5361,7.707a42.5278,42.5278,0,0,1-21.7988-5.5273,38.7255,38.7255,0,0,1-14.87-15.5713q-5.3715-10.0428-5.3721-23.2774T505.9286,137.9511Z"/><path d="M670.12,167.9252H604.5672q.7764,10.2759,7.63,16.5049a24.0784,24.0784,0,0,0,16.8154,6.2276q14.3247,0,20.2422-11.9893h19.1524a38.6513,38.6513,0,0,1-14.0918,19.3857q-10.2,7.5543-25.3028,7.5518a43.8053,43.8053,0,0,1-22.0323-5.5273,39.3061,39.3061,0,0,1-15.2587-15.5713q-5.53-10.0429-5.5284-23.2774t5.3721-23.2788a37.7836,37.7836,0,0,1,15.1035-15.4927,44.956,44.956,0,0,1,22.3437-5.45,43.7127,43.7127,0,0,1,21.6436,5.294,37.4255,37.4255,0,0,1,14.792,14.87,44.7976,44.7976,0,0,1,5.2939,22.0327A55.7627,55.7627,0,0,1,670.12,167.9252ZM652.2137,153.6q-.1582-9.81-7.0068-15.7265-6.8541-5.9157-16.9727-5.917a22.796,22.796,0,0,0-15.7265,5.8389q-6.5391,5.8395-7.7852,15.8046Z"/><path class="cls-1" d="M255.2748,67.2859c25.59-22.0065,55.9284-38.7772,88.23-50.1465a307.9462,307.9462,0,0,1,202.4759-.0452,290.988,290.988,0,0,1,46.6339,21.089c3.66,2.1843,7.3441,4.2973,10.9535,6.5278,3.5507,2.3428,7.1222,4.622,10.6109,7.02q5.1639,3.7189,10.2344,7.5072c3.2745,2.6943,6.58,5.31,9.7831,8.0477-3.8468-1.7686-7.5912-3.6586-11.3664-5.47l-11.3933-5.2308-11.4681-4.9184L588.421,47.0729A418.88,418.88,0,0,0,541.43,32.1474a390.8384,390.8384,0,0,0-193.3891-.0068A417.0079,417.0079,0,0,0,301.0491,47.07c-3.8344,1.5341-7.7286,2.9768-11.5457,4.598l-5.7313,2.4434c-1.9014.8376-3.8615,1.5763-5.7336,2.4807l-5.6883,2.607c-1.8951.8776-3.8421,1.6774-5.7012,2.63Z"/><path class="cls-2" d="M90.109,205.3489a15.3461,15.3461,0,0,1-13.8609-8.8277L38.8542,116.33a15.28,15.28,0,1,1,27.6963-12.9149l37.3934,80.1914A15.2889,15.2889,0,0,1,90.109,205.3489Z"/><circle class="cls-3" cx="15.2799" cy="190.069" r="15.2799"/><path class="cls-4" d="M144.8751,143.231v46.8352a15.28,15.28,0,1,1-30.5593.2074q-.0008-.1036,0-.2074V155.581a12.36,12.36,0,0,1,12.34-12.35Z"/><path class="cls-5" d="M199.5918,131.2558a36.7075,36.7075,0,0,1-36.6652,36.6653H126.6559a12.3451,12.3451,0,0,1,0-24.69h36.2707a11.98,11.98,0,0,0,0-23.96H126.6559a12.34,12.34,0,0,1,0-24.68h36.2707A36.7012,36.7012,0,0,1,199.5918,131.2558Z"/></g></g></svg>