<svg id="Layer_1" data-name="Layer 1" xmlns="http://www.w3.org/2000/svg" xmlns:xlink="http://www.w3.org/1999/xlink" width="673.4901" height="244.9998" viewBox="0 0 673.4901 244.9998"><defs><style>.cls-1{fill:url(#linear-gradient);}.cls-2{fill:url(#linear-gradient-2);}.cls-3{fill:url(#linear-gradient-3);}.cls-4{fill:url(#linear-gradient-4);}.cls-5{fill:url(#linear-gradient-5);}</style><linearGradient id="linear-gradient" x1="161.4612" y1="-82.591" x2="223.9024" y2="-53.4742" gradientTransform="matrix(0.9063, -0.4226, 0.4226, 0.9063, -73.4998, 293.3764)" gradientUnits="userSpaceOnUse"><stop offset="0" stop-color="#2a83ff"/><stop offset="0.2003" stop-color="#2a7fff"/><stop offset="0.4165" stop-color="#2a72ff"/><stop offset="0.64" stop-color="#2a5cff"/><stop offset="0.8672" stop-color="#2a3eff"/><stop offset="1" stop-color="#2a29ff"/></linearGradient><linearGradient id="linear-gradient-2" x1="0" y1="190.9399" x2="30.9805" y2="190.9399" gradientTransform="matrix(1, 0, 0, 1, 0, 0)" xlink:href="#linear-gradient"/><linearGradient id="linear-gradient-3" x1="115.892" y1="175.2349" x2="146.8725" y2="175.2349" gradientTransform="matrix(1, 0, 0, 1, 0, 0)" xlink:href="#linear-gradient"/><linearGradient id="linear-gradient-4" x1="115.892" y1="132.0571" x2="202.3393" y2="132.0571" gradientTransform="matrix(1, 0, 0, 1, 0, 0)" xlink:href="#linear-gradient"/><linearGradient id="linear-gradient-5" x1="258.0226" y1="33.6431" x2="636.9443" y2="33.6431" gradientTransform="matrix(1, 0, 0, 1, 0, 0)" xlink:href="#linear-gradient"/></defs><path class="cls-1" d="M91.35,206.43a15.5576,15.5576,0,0,1-14.0517-8.9492L39.3891,116.1851A15.5,15.5,0,0,1,53.4145,94.144a15.5589,15.5589,0,0,1,14.0522,8.9488l37.9082,81.2954A15.5,15.5,0,0,1,91.35,206.43Z"/><circle class="cls-2" cx="15.4902" cy="190.9399" r="15.4902"/><path class="cls-3" d="M131.3823,206.2651a15.5079,15.5079,0,0,1-15.49-15.49v-31.08a15.49,15.49,0,0,1,30.9805,0v31.08A15.5078,15.5078,0,0,1,131.3823,206.2651Z"/><path class="cls-4" d="M128.4033,169.2271a12.5113,12.5113,0,1,1,0-25.0225H165.17a12.1475,12.1475,0,0,0,0-24.2949H128.4033a12.5113,12.5113,0,1,1,0-25.0225h36.7661a37.17,37.17,0,0,1,0,74.34Z"/><path d="M243.4334,201.48a32.1771,32.1771,0,0,1-13.7021-10.8222,27.4691,27.4691,0,0,1-4.9829-16.3487H243.745a17.1433,17.1433,0,0,0,5.5273,11.5225q4.905,4.5176,13.78,4.5146,9.1853,0,14.3252-4.4375a14.4244,14.4244,0,0,0,5.1382-11.4443,12.51,12.51,0,0,0-3.1919-8.875,21.3757,21.3757,0,0,0-7.9414-5.2939,120.1392,120.1392,0,0,0-13.1573-4.0489,122.9349,122.9349,0,0,1-17.2055-5.6836,28.4086,28.4086,0,0,1-11.2886-8.9526q-4.6715-6.0725-4.6714-16.1934a28.7793,28.7793,0,0,1,4.6714-16.3491A29.84,29.84,0,0,1,242.81,98.324a47.5207,47.5207,0,0,1,19.4634-3.7368q15.7258,0,25.7695,7.8632t11.1333,21.5655H279.5575a14.216,14.216,0,0,0-5.6055-10.1211q-5.1387-4.2042-13.5464-4.2041-7.6311,0-12.4565,3.8926-4.8282,3.8942-4.8272,11.2109a11.373,11.373,0,0,0,3.0366,8.1748,21.4272,21.4272,0,0,0,7.7071,5.0605,119.5,119.5,0,0,0,12.768,4.0484,133.65,133.65,0,0,1,17.5171,5.917,29.1792,29.1792,0,0,1,11.5225,9.1084q4.7475,6.1538,4.749,16.4277a29.5332,29.5332,0,0,1-4.4375,15.57,32,32,0,0,1-12.9238,11.7559q-8.4888,4.437-20.0083,4.4375A48.431,48.431,0,0,1,243.4334,201.48Z"/><path d="M343.7069,121.0574a37.571,37.571,0,0,1,17.5947-4.0484A38.9044,38.9044,0,0,1,396.3358,138.03a48.0768,48.0768,0,0,1,5.2939,22.8892,49.4611,49.4611,0,0,1-5.2939,23.1221,39.5712,39.5712,0,0,1-14.5586,15.8818,38.3817,38.3817,0,0,1-20.4756,5.6836,37.2154,37.2154,0,0,1-17.44-3.9707,39.0265,39.0265,0,0,1-12.456-9.8877V245h-17.75V118.41h17.75v12.6123A36.0719,36.0719,0,0,1,343.7069,121.0574Zm36.2011,24.5239a25.1072,25.1072,0,0,0-9.6533-9.81,25.9441,25.9441,0,0,0-12.8457-3.3476,25.2018,25.2018,0,0,0-12.69,3.4253,25.493,25.493,0,0,0-9.6533,9.9653,31.0543,31.0543,0,0,0-3.6592,15.4155,31.4971,31.4971,0,0,0,3.6592,15.4922,25.3081,25.3081,0,0,0,22.3437,13.4688,25.0467,25.0467,0,0,0,12.8457-3.503,25.8186,25.8186,0,0,0,9.6533-10.1992,31.9656,31.9656,0,0,0,3.6592-15.57A30.6369,30.6369,0,0,0,379.908,145.5813Z"/><path d="M410.8934,138.03a39.1378,39.1378,0,0,1,35.1123-21.0205,37.4526,37.4526,0,0,1,17.6719,3.9707,35.8906,35.8906,0,0,1,12.0674,9.8872V118.41h17.9072v85.7944H475.745V191.4373a35.26,35.26,0,0,1-12.3008,10.12,39.8054,39.8054,0,0,1-37.9922-1.6348,40.2834,40.2834,0,0,1-14.5586-15.8818,48.8508,48.8508,0,0,1-5.3721-23.1221A47.487,47.487,0,0,1,410.8934,138.03Zm61.1924,7.7852a25.6992,25.6992,0,0,0-9.5752-9.9653,25.0809,25.0809,0,0,0-12.7686-3.4253,25.5033,25.5033,0,0,0-12.7675,3.3476,25.2448,25.2448,0,0,0-9.5762,9.81,30.616,30.616,0,0,0-3.6592,15.3374,31.9434,31.9434,0,0,0,3.6592,15.57,25.787,25.787,0,0,0,9.6543,10.1992,24.7568,24.7568,0,0,0,12.6894,3.503,25.0488,25.0488,0,0,0,12.7686-3.4258,25.5445,25.5445,0,0,0,9.5752-10.043A31.5189,31.5189,0,0,0,475.745,161.23,31.0756,31.0756,0,0,0,472.0858,145.8147Z"/><path d="M508.6766,137.9514a38.2145,38.2145,0,0,1,14.87-15.4927,43.0192,43.0192,0,0,1,21.7988-5.45q15.5685,0,25.77,7.396,10.1967,7.3975,13.78,21.0982H565.743a20.2578,20.2578,0,0,0-7.4736-9.9649q-5.1387-3.58-12.9239-3.5815-10.9,0-17.3613,7.7075T521.5223,161.23q0,13.859,6.4619,21.6426,6.46,7.7886,17.3613,7.7852,15.4161,0,20.3975-13.5459h19.1523a38.34,38.34,0,0,1-14.0136,20.7871q-10.2759,7.7065-25.5362,7.707a42.5289,42.5289,0,0,1-21.7988-5.5273,38.7258,38.7258,0,0,1-14.87-15.5713q-5.3716-10.0429-5.3721-23.2774T508.6766,137.9514Z"/><path d="M672.868,167.9255H607.3153q.7763,10.2759,7.63,16.5049a24.0783,24.0783,0,0,0,16.8154,6.2276q14.3247,0,20.2422-11.9893h19.1523a38.6508,38.6508,0,0,1-14.0918,19.3857q-10.2,7.5543-25.3027,7.5518a43.8052,43.8052,0,0,1-22.0322-5.5273A39.3067,39.3067,0,0,1,594.47,184.5076q-5.53-10.0429-5.5284-23.2774t5.3721-23.2788a37.785,37.785,0,0,1,15.1035-15.4927,44.9568,44.9568,0,0,1,22.3438-5.45,43.7124,43.7124,0,0,1,21.6435,5.294,37.4236,37.4236,0,0,1,14.792,14.87,44.7967,44.7967,0,0,1,5.294,22.0327A55.7381,55.7381,0,0,1,672.868,167.9255ZM654.9618,153.6q-.1582-9.81-7.0069-15.7265-6.8539-5.9158-16.9726-5.917a22.7967,22.7967,0,0,0-15.7266,5.8389q-6.5391,5.8395-7.7852,15.8046Z"/><path class="cls-5" d="M258.0226,67.2862C283.613,45.28,313.951,28.509,346.2526,17.14a307.9462,307.9462,0,0,1,202.4759-.0452,290.9865,290.9865,0,0,1,46.6339,21.089c3.66,2.1843,7.3441,4.2973,10.9535,6.5278,3.5507,2.3428,7.1222,4.622,10.6109,7.02q5.1637,3.7189,10.2344,7.5072c3.2745,2.6943,6.58,5.31,9.7831,8.0477-3.8468-1.7686-7.5912-3.6586-11.3664-5.47l-11.3933-5.2308-11.4681-4.9184-11.5477-4.5936a418.8953,418.8953,0,0,0-46.9914-14.9255,390.8388,390.8388,0,0,0-193.3891-.0068A417.0049,417.0049,0,0,0,303.7969,47.07c-3.8344,1.5341-7.7286,2.9768-11.5457,4.598L286.52,54.111c-1.9014.8376-3.8615,1.5763-5.7336,2.4807l-5.6883,2.607c-1.8951.8776-3.8421,1.6774-5.7012,2.63Z"/></svg>