<svg xmlns="http://www.w3.org/2000/svg" xmlns:xlink="http://www.w3.org/1999/xlink" width="207.5525" height="115.179" viewBox="0 0 207.5525 115.179"><defs><style>.cls-1{fill:url(#linear-gradient);}.cls-2{fill:url(#linear-gradient-2);}.cls-3{fill:url(#linear-gradient-3);}.cls-4{fill:url(#linear-gradient-4);}</style><linearGradient id="linear-gradient" x1="159.5086" y1="-180.827" x2="223.5586" y2="-150.96" gradientTransform="matrix(0.9063, -0.4226, 0.4226, 0.9063, -29.2367, 288.8856)" gradientUnits="userSpaceOnUse"><stop offset="0" stop-color="#2a83ff"/><stop offset="0.2003" stop-color="#2a7fff"/><stop offset="0.4165" stop-color="#2a72ff"/><stop offset="0.64" stop-color="#2a5cff"/><stop offset="0.8672" stop-color="#2a3eff"/><stop offset="1" stop-color="#2a29ff"/></linearGradient><linearGradient id="linear-gradient-2" x1="0" y1="99.2897" x2="31.7786" y2="99.2897" gradientTransform="matrix(1, 0, 0, 1, 0, 0)" xlink:href="#linear-gradient"/><linearGradient id="linear-gradient-3" x1="118.8753" y1="82.8797" x2="150.6535" y2="82.8797" gradientTransform="matrix(1, 0, 0, 1, 0, 0)" xlink:href="#linear-gradient"/><linearGradient id="linear-gradient-4" x1="118.8753" y1="38.1308" x2="207.5525" y2="38.1308" gradientTransform="matrix(1, 0, 0, 1, 0, 0)" xlink:href="#linear-gradient"/></defs><g id="Layer_2" data-name="Layer 2"><g id="Layer_1-2" data-name="Layer 1"><path class="cls-1" d="M93.703,115.179a15.9584,15.9584,0,0,1-14.4138-9.18l-38.8853-83.39A15.8993,15.8993,0,0,1,54.7906,0,15.96,15.96,0,0,1,69.2049,9.1793l38.8848,83.39a15.8988,15.8988,0,0,1-14.3867,22.61Z"/><circle class="cls-2" cx="15.8893" cy="99.2897" r="15.8893"/><path class="cls-3" d="M150.6535,50.5835V99.2867a15.8891,15.8891,0,1,1-31.7782,0V63.4261a12.8531,12.8531,0,0,1,12.8323-12.8426Z"/><path class="cls-4" d="M207.5525,38.1307A38.1716,38.1716,0,0,1,169.425,76.2584H131.7076a12.8375,12.8375,0,0,1,0-25.6749H169.425a12.4579,12.4579,0,1,0,0-24.9158H131.7076a12.8323,12.8323,0,0,1,0-25.6646H169.425A38.165,38.165,0,0,1,207.5525,38.1307Z"/></g></g></svg>