<svg xmlns="http://www.w3.org/2000/svg" width="19.2" height="13.44" viewBox="0 0 19.2 13.44"><defs><style>.cls-1{fill:#2a83ff;}.cls-2{fill:none;}</style></defs><g id="Layer_2" data-name="Layer 2"><g id="Layer_1-2" data-name="Layer 1"><path class="cls-1" d="M16.74,0H15.35V2.84a1.0029,1.0029,0,0,1-1,1H3.88a1.0029,1.0029,0,0,1-1-1V0H1.5A1.498,1.498,0,0,0,0,1.5v9.48a1.498,1.498,0,0,0,1.5,1.5H15.62a1.9406,1.9406,0,0,1-.26-.96A1.92,1.92,0,0,1,17.28,9.6a1.9406,1.9406,0,0,1,.96.26V1.5A1.498,1.498,0,0,0,16.74,0ZM8.16,9.6H3.36a.48.48,0,1,1,0-.96h4.8a.48.48,0,0,1,0,.96Zm0-1.92H3.36a.48.48,0,0,1,0-.96h4.8a.48.48,0,0,1,0,.96Zm0-1.92H3.36a.48.48,0,1,1,0-.96h4.8a.48.48,0,1,1,0,.96ZM14.88,9.6h-4.8a.48.48,0,0,1,0-.96h4.8a.48.48,0,0,1,0,.96Zm0-1.92h-4.8a.48.48,0,0,1,0-.96h4.8a.48.48,0,0,1,0,.96Zm0-1.92h-4.8a.48.48,0,1,1,0-.96h4.8a.48.48,0,1,1,0,.96Zm3.01,5.56h-.42v-.74a.203.203,0,0,0-.21-.2.2006.2006,0,0,0-.2.2v.94a.2006.2006,0,0,0,.2.2h.63a.2.2,0,0,0,0-.4Z"/><path class="cls-1" d="M18.09,11.52a.2006.2006,0,0,1-.2.2h-.63a.2006.2006,0,0,1-.2-.2v-.94a.2006.2006,0,0,1,.2-.2.203.203,0,0,1,.21.2v.74h.42A.2007.2007,0,0,1,18.09,11.52Z"/><path class="cls-1" d="M17.47,10.58v.94a.203.203,0,0,1-.21.2.2006.2006,0,0,1-.2-.2v-.94a.2006.2006,0,0,1,.2-.2A.203.203,0,0,1,17.47,10.58Z"/><path class="cls-1" d="M18.09,11.52a.2006.2006,0,0,1-.2.2h-.63a.2.2,0,0,1,0-.4h.63A.2007.2007,0,0,1,18.09,11.52Z"/><circle class="cls-2" cx="17.28" cy="11.52" r="1.92"/></g></g></svg>