<svg xmlns="http://www.w3.org/2000/svg" width="19.2" height="13.44" viewBox="0 0 19.2 13.44"><defs><style>.cls-1{fill:#2a83ff;}</style></defs><g id="Layer_2" data-name="Layer 2"><g id="Layer_1-2" data-name="Layer 1"><path class="cls-1" d="M16.74,0H1.5A1.498,1.498,0,0,0,0,1.5v9.48a1.498,1.498,0,0,0,1.5,1.5H16.74a1.498,1.498,0,0,0,1.5-1.5V1.5A1.498,1.498,0,0,0,16.74,0Zm1.15,11.72h-.63a.2006.2006,0,0,1-.2-.2v-.15a.5167.5167,0,0,1-.32.11H1.5a.4951.4951,0,0,1-.5-.5V1.5A.4951.4951,0,0,1,1.5,1H16.74a.4951.4951,0,0,1,.5.5v8.89c.01-.01.01-.01.02-.01a.203.203,0,0,1,.21.2v.74h.42a.2.2,0,0,1,0,.4Z"/><rect class="cls-1" x="2.88" width="12.4683" height="3.84" rx="1"/><rect class="cls-1" x="2.88" y="4.8" width="5.76" height="0.96" rx="0.48"/><rect class="cls-1" x="2.88" y="6.72" width="5.76" height="0.96" rx="0.48"/><rect class="cls-1" x="9.6" y="4.8" width="5.76" height="0.96" rx="0.48"/><rect class="cls-1" x="9.6" y="6.72" width="5.76" height="0.96" rx="0.48"/><rect class="cls-1" x="2.88" y="8.64" width="5.76" height="0.96" rx="0.48"/><rect class="cls-1" x="9.6" y="8.64" width="5.76" height="0.96" rx="0.48"/><path class="cls-1" d="M18.24,9.86a1.9406,1.9406,0,0,0-.96-.26h-.04a1.9175,1.9175,0,0,0-1.88,1.88v.04a1.9406,1.9406,0,0,0,.26.96,1.9182,1.9182,0,1,0,2.62-2.62Zm-1.18.72a.188.188,0,0,1,.18-.19c.01-.01.01-.01.02-.01a.203.203,0,0,1,.21.2v.74h.42a.2.2,0,0,1,0,.4h-.63a.2006.2006,0,0,1-.2-.2Z"/></g></g></svg>