<svg xmlns="http://www.w3.org/2000/svg" width="16.32" height="19.2" viewBox="0 0 16.32 19.2"><defs><style>.cls-1{fill:#2a83ff;}</style></defs><g id="Layer_2" data-name="Layer 2"><g id="Layer_1-2" data-name="Layer 1"><path class="cls-1" d="M6.18,10.6a.5006.5006,0,0,1,.5.5v6.6a.5006.5006,0,0,1-.5.5H1.5a.5006.5006,0,0,1-.5-.5V11.1a.5006.5006,0,0,1,.5-.5H6.18m0-1H1.5A1.5,1.5,0,0,0,0,11.1v6.6a1.5,1.5,0,0,0,1.5,1.5H6.18a1.5,1.5,0,0,0,1.5-1.5V11.1a1.5,1.5,0,0,0-1.5-1.5Z"/><path class="cls-1" d="M6.18,1a.5006.5006,0,0,1,.5.5V7.14a.5006.5006,0,0,1-.5.5H1.5a.5006.5006,0,0,1-.5-.5V1.5A.5006.5006,0,0,1,1.5,1H6.18m0-1H1.5A1.5,1.5,0,0,0,0,1.5V7.14a1.5,1.5,0,0,0,1.5,1.5H6.18a1.5,1.5,0,0,0,1.5-1.5V1.5A1.5,1.5,0,0,0,6.18,0Z"/><path class="cls-1" d="M14.82,1a.5006.5006,0,0,1,.5.5v8.52a.5006.5006,0,0,1-.5.5H10.14a.5006.5006,0,0,1-.5-.5V1.5a.5006.5006,0,0,1,.5-.5h4.68m0-1H10.14a1.5,1.5,0,0,0-1.5,1.5v8.52a1.5,1.5,0,0,0,1.5,1.5h4.68a1.5,1.5,0,0,0,1.5-1.5V1.5A1.5,1.5,0,0,0,14.82,0Z"/><path class="cls-1" d="M14.82,13.4816a.5006.5006,0,0,1,.5.5V17.7a.5006.5006,0,0,1-.5.5H10.14a.5006.5006,0,0,1-.5-.5V13.9816a.5006.5006,0,0,1,.5-.5h4.68m0-1H10.14a1.5,1.5,0,0,0-1.5,1.5V17.7a1.5,1.5,0,0,0,1.5,1.5h4.68a1.5,1.5,0,0,0,1.5-1.5V13.9816a1.5,1.5,0,0,0-1.5-1.5Z"/></g></g></svg>