<svg xmlns="http://www.w3.org/2000/svg" width="18.24" height="18.24" viewBox="0 0 18.24 18.24"><defs><style>.cls-1{fill:#2a83ff;}</style></defs><g id="Layer_2" data-name="Layer 2"><g id="Layer_1-2" data-name="Layer 1"><path class="cls-1" d="M16.74,1a.5006.5006,0,0,1,.5.5V16.74a.5006.5006,0,0,1-.5.5H1.5a.5006.5006,0,0,1-.5-.5V1.5A.5006.5006,0,0,1,1.5,1H16.74m0-1H1.5A1.5,1.5,0,0,0,0,1.5V16.74a1.5,1.5,0,0,0,1.5,1.5H16.74a1.5,1.5,0,0,0,1.5-1.5V1.5A1.5,1.5,0,0,0,16.74,0Z"/><rect class="cls-1" x="0.96" y="0.96" width="16.32" height="3.84"/><rect class="cls-1" x="3.6071" y="6.3224" width="2.3859" height="0.7953" rx="0.3976" transform="translate(-3.3459 5.3624) rotate(-45)"/><rect class="cls-1" x="3.6071" y="6.3224" width="2.3859" height="0.7953" rx="0.3976" transform="translate(6.1576 -1.4259) rotate(45)"/><rect class="cls-1" x="9.3671" y="6.3224" width="2.3859" height="0.7953" rx="0.3976" transform="translate(-1.6588 9.4353) rotate(-45)"/><rect class="cls-1" x="9.3671" y="6.3224" width="2.3859" height="0.7953" rx="0.3976" transform="translate(7.8447 -5.4988) rotate(45)"/><rect class="cls-1" x="12.2471" y="6.3224" width="2.3859" height="0.7953" rx="0.3976" transform="translate(-0.8153 11.4718) rotate(-45)"/><rect class="cls-1" x="12.2471" y="6.3224" width="2.3859" height="0.7953" rx="0.3976" transform="translate(8.6882 -7.5353) rotate(45)"/><rect class="cls-1" x="6.4871" y="10.1624" width="2.3859" height="0.7953" rx="0.3976" transform="translate(-5.2176 8.5235) rotate(-45)"/><rect class="cls-1" x="6.4871" y="10.1624" width="2.3859" height="0.7953" rx="0.3976" transform="translate(9.7165 -2.3376) rotate(45)"/><rect class="cls-1" x="9.3671" y="10.1624" width="2.3859" height="0.7953" rx="0.3976" transform="translate(-4.3741 10.56) rotate(-45)"/><rect class="cls-1" x="9.3671" y="10.1624" width="2.3859" height="0.7953" rx="0.3976" transform="translate(10.56 -4.3741) rotate(45)"/><rect class="cls-1" x="3.6071" y="13.8946" width="2.3859" height="0.7953" rx="0.3976" transform="translate(-8.7003 7.5802) rotate(-45)"/><rect class="cls-1" x="3.6071" y="13.8946" width="2.3859" height="0.7953" rx="0.3976" transform="translate(11.5121 0.792) rotate(45)"/><rect class="cls-1" x="6.4871" y="13.8946" width="2.3859" height="0.7953" rx="0.3976" transform="translate(-7.8568 9.6167) rotate(-45)"/><rect class="cls-1" x="6.4871" y="13.8946" width="2.3859" height="0.7953" rx="0.3976" transform="translate(12.3556 -1.2445) rotate(45)"/><rect class="cls-1" x="9.3671" y="13.8946" width="2.3859" height="0.7953" rx="0.3976" transform="translate(-7.0132 11.6532) rotate(-45)"/><rect class="cls-1" x="9.3671" y="13.8946" width="2.3859" height="0.7953" rx="0.3976" transform="translate(13.1991 -3.2809) rotate(45)"/><rect class="cls-1" x="12.2471" y="13.8946" width="2.3859" height="0.7953" rx="0.3976" transform="translate(-6.1697 13.6896) rotate(-45)"/><rect class="cls-1" x="12.2471" y="13.8946" width="2.3859" height="0.7953" rx="0.3976" transform="translate(14.0427 -5.3174) rotate(45)"/></g></g></svg>