<svg xmlns="http://www.w3.org/2000/svg" width="18.24" height="18.24" viewBox="0 0 18.24 18.24"><defs><style>.cls-1{fill:#2a83ff;}</style></defs><g id="Layer_2" data-name="Layer 2"><g id="Layer_1-2" data-name="Layer 1"><path class="cls-1" d="M16.74,0H1.5A1.498,1.498,0,0,0,0,1.5V16.74a1.498,1.498,0,0,0,1.5,1.5H16.74a1.498,1.498,0,0,0,1.5-1.5V1.5A1.498,1.498,0,0,0,16.74,0ZM5.64,14.57a.3984.3984,0,0,1,0,.57.4114.4114,0,0,1-.56,0l-.28-.28-.28.28a.4046.4046,0,0,1-.56,0,.3949.3949,0,0,1-.12-.28.4.4,0,0,1,.12-.29l.28-.28-.28-.28a.3867.3867,0,0,1,0-.56.3867.3867,0,0,1,.56,0l.28.28.28-.28a.3866.3866,0,0,1,.56,0,.3867.3867,0,0,1,0,.56l-.28.28ZM5.64,7a.3866.3866,0,0,1,0,.56.3867.3867,0,0,1-.56,0L4.8,7.28l-.28.28a.3866.3866,0,0,1-.56,0,.3867.3867,0,0,1,0-.56l.28-.28-.28-.28a.3866.3866,0,0,1,0-.56.3867.3867,0,0,1,.56,0l.28.28.28-.28a.3866.3866,0,0,1,.56,0,.3867.3867,0,0,1,0,.56l-.28.28Zm2.88,7.57a.3984.3984,0,0,1,0,.57.4114.4114,0,0,1-.56,0l-.28-.28-.28.28a.4046.4046,0,0,1-.56,0,.3949.3949,0,0,1-.12-.28.4.4,0,0,1,.12-.29l.28-.28-.28-.28a.3867.3867,0,0,1,0-.56.3867.3867,0,0,1,.56,0l.28.28.28-.28a.3866.3866,0,0,1,.56,0,.3867.3867,0,0,1,0,.56l-.28.28Zm0-3.73a.3866.3866,0,0,1,0,.56.3867.3867,0,0,1-.56,0l-.28-.28-.28.28a.3866.3866,0,0,1-.56,0,.3867.3867,0,0,1,0-.56l.28-.28-.28-.28a.3866.3866,0,0,1,0-.56.3867.3867,0,0,1,.56,0l.28.28.28-.28a.3866.3866,0,0,1,.56,0,.3867.3867,0,0,1,0,.56l-.28.28Zm2.88,3.73a.3984.3984,0,0,1,0,.57.4114.4114,0,0,1-.56,0l-.28-.28-.28.28a.4046.4046,0,0,1-.56,0,.3949.3949,0,0,1-.12-.28.4.4,0,0,1,.12-.29l.28-.28-.28-.28a.3867.3867,0,0,1,0-.56.3867.3867,0,0,1,.56,0l.28.28.28-.28a.3866.3866,0,0,1,.56,0,.3867.3867,0,0,1,0,.56l-.28.28Zm0-3.73a.3866.3866,0,0,1,0,.56.3867.3867,0,0,1-.56,0l-.28-.28-.28.28a.3866.3866,0,0,1-.56,0,.3867.3867,0,0,1,0-.56l.28-.28-.28-.28a.3866.3866,0,0,1,0-.56.3867.3867,0,0,1,.56,0l.28.28.28-.28a.3866.3866,0,0,1,.56,0,.3867.3867,0,0,1,0,.56l-.28.28ZM11.4,7a.3866.3866,0,0,1,0,.56.3867.3867,0,0,1-.56,0l-.28-.28-.28.28a.3866.3866,0,0,1-.56,0,.3867.3867,0,0,1,0-.56L10,6.72l-.28-.28a.3866.3866,0,0,1,0-.56.3867.3867,0,0,1,.56,0l.28.28.28-.28a.3866.3866,0,0,1,.56,0,.3867.3867,0,0,1,0,.56l-.28.28Zm2.88,7.57a.3984.3984,0,0,1,0,.57.4114.4114,0,0,1-.56,0l-.28-.28-.28.28a.4046.4046,0,0,1-.56,0,.3949.3949,0,0,1-.12-.28.4.4,0,0,1,.12-.29l.28-.28-.28-.28a.3867.3867,0,0,1,0-.56.3867.3867,0,0,1,.56,0l.28.28.28-.28a.3866.3866,0,0,1,.56,0,.3867.3867,0,0,1,0,.56l-.28.28Zm0-7.57a.3866.3866,0,0,1,0,.56.3867.3867,0,0,1-.56,0l-.28-.28-.28.28a.3866.3866,0,0,1-.56,0,.3867.3867,0,0,1,0-.56l.28-.28-.28-.28a.3866.3866,0,0,1,0-.56.3867.3867,0,0,1,.56,0l.28.28.28-.28a.3866.3866,0,0,1,.56,0,.3867.3867,0,0,1,0,.56L14,6.72Zm2.2927-2.2H1.6673A.7073.7073,0,0,1,.96,4.0927V1.6672A.7073.7073,0,0,1,1.6673.96H16.5727a.7073.7073,0,0,1,.7073.7072V4.0927A.7073.7073,0,0,1,16.5727,4.8Z"/></g></g></svg>